STARTFONT 2.1
FONT -FontForge-Anton-Book-R-Normal--30-290-75-75-P-131-ISO10646-1
SIZE 29 75 75
FONTBOUNDINGBOX 31 34 0 -5
COMMENT "Generated by fontforge, http://fontforge.sourceforge.net"
COMMENT "Copyright 2011 The Anton Project Authors"
STARTPROPERTIES 39
FOUNDRY "FontForge"
FAMILY_NAME "Anton"
WEIGHT_NAME "Book"
SLANT "R"
SETWIDTH_NAME "Normal"
ADD_STYLE_NAME ""
PIXEL_SIZE 30
POINT_SIZE 290
RESOLUTION_X 75
RESOLUTION_Y 75
SPACING "P"
AVERAGE_WIDTH 131
CHARSET_REGISTRY "ISO10646"
CHARSET_ENCODING "1"
FONTNAME_REGISTRY ""
CHARSET_COLLECTIONS "ISO8859-2 ISO8859-9 ISO8859-4 ISO10646-1"
FONT_NAME "Anton-Regular"
FACE_NAME "Anton Regular"
COPYRIGHT "Copyright 2011 The Anton Project Authors"
FONT_VERSION "2.000"
FONT_ASCENT 24
FONT_DESCENT 6
UNDERLINE_POSITION -4
UNDERLINE_THICKNESS 2
X_HEIGHT 21
CAP_HEIGHT 25
RAW_ASCENT 800
RAW_DESCENT 200
NORM_SPACE 7
RELATIVE_WEIGHT 40
RELATIVE_SETWIDTH 50
SUPERSCRIPT_X 0
SUPERSCRIPT_Y 10
SUPERSCRIPT_SIZE 18
SUBSCRIPT_X 0
SUBSCRIPT_Y 2
SUBSCRIPT_SIZE 18
AVG_LOWERCASE_WIDTH 281
AVG_UPPERCASE_WIDTH 281
ENDPROPERTIES
CHARS 95
STARTCHAR space
ENCODING 32
SWIDTH 234 0
DWIDTH 7 0
BBX 1 1 0 0
BITMAP
00
ENDCHAR
STARTCHAR exclam
ENCODING 33
SWIDTH 229 0
DWIDTH 7 0
BBX 5 26 1 0
BITMAP
F8
F8
F8
F8
F8
F8
F8
F8
F8
F8
F0
F0
F0
70
70
70
70
70
70
00
00
00
F8
F8
F8
F8
ENDCHAR
STARTCHAR quotedbl
ENCODING 34
SWIDTH 429 0
DWIDTH 13 0
BBX 11 9 1 17
BITMAP
FBE0
FBE0
F3E0
F1E0
F1E0
F1E0
71C0
71C0
71C0
ENDCHAR
STARTCHAR numbersign
ENCODING 35
SWIDTH 546 0
DWIDTH 16 0
BBX 15 23 1 0
BITMAP
0F1E
0F3E
0F3C
1F3C
1E3C
1E3C
1E7C
FFFE
FFFE
FFFE
3C78
3CF8
FFFC
FFFC
FFFC
78F0
79E0
79E0
F9E0
F1E0
F1E0
F3E0
F3C0
ENDCHAR
STARTCHAR dollar
ENCODING 36
SWIDTH 462 0
DWIDTH 14 0
BBX 12 26 1 -2
BITMAP
0600
0600
3FC0
7FE0
FFE0
FFF0
F9F0
F9F0
F800
FC00
7E00
3F00
1F80
0FC0
07E0
03F0
F9F0
F9F0
F9F0
FFF0
FFF0
7FE0
7FC0
1F00
0600
0600
ENDCHAR
STARTCHAR percent
ENCODING 37
SWIDTH 1057 0
DWIDTH 32 0
BBX 30 26 1 0
BITMAP
1F00F800
7FC0F800
FFC0F800
F3E0F000
F1E1F000
F1E1F000
F1E1E000
F1E3E000
F1E3E000
F1E3C3E0
F1E7CFF8
F1E7DFF8
F1E7DE7C
F3EF9E3C
FFEF9E3C
7FCF9E3C
7F8F1E3C
1F1F1E3C
001F1E3C
001E1E3C
003E1E3C
003E1E7C
003C1FFC
007C1FF8
007C0FF0
007C03E0
ENDCHAR
STARTCHAR ampersand
ENCODING 38
SWIDTH 505 0
DWIDTH 15 0
BBX 14 23 1 0
BITMAP
0F80
1FE0
3FE0
3FF0
3CF0
3CF0
3FE0
3FE0
3FC0
1F90
3F38
7FB8
7FFC
FFF0
F7F0
F3E0
F3E0
F3E0
F3F0
FFF0
FFF0
7FF8
3CF8
ENDCHAR
STARTCHAR quotesingle
ENCODING 39
SWIDTH 214 0
DWIDTH 6 0
BBX 5 9 1 17
BITMAP
F8
F8
F0
F0
F0
F0
70
70
70
ENDCHAR
STARTCHAR parenleft
ENCODING 40
SWIDTH 291 0
DWIDTH 9 0
BBX 7 26 1 0
BITMAP
0E
3E
7E
7E
FC
F8
F8
F8
F8
F8
F8
F8
F8
F8
F8
F8
F8
F8
F8
F8
F8
FC
7E
3E
1E
0E
ENDCHAR
STARTCHAR parenright
ENCODING 41
SWIDTH 291 0
DWIDTH 9 0
BBX 7 26 1 0
BITMAP
E0
F0
F8
FC
7C
7E
3E
3E
3E
3E
3E
3E
3E
3E
3E
3E
3E
3E
3E
3E
7E
FC
FC
F8
F0
C0
ENDCHAR
STARTCHAR asterisk
ENCODING 42
SWIDTH 452 0
DWIDTH 14 0
BBX 12 12 1 11
BITMAP
0E00
0E00
4E60
F6E0
FFF0
3F80
3F80
FFF0
F6F0
4E60
0E00
0E00
ENDCHAR
STARTCHAR plus
ENCODING 43
SWIDTH 355 0
DWIDTH 11 0
BBX 9 9 1 4
BITMAP
1C00
1C00
1C00
FF80
FF80
FF80
1C00
1C00
1C00
ENDCHAR
STARTCHAR comma
ENCODING 44
SWIDTH 236 0
DWIDTH 7 0
BBX 5 7 1 -3
BITMAP
F8
F8
F8
F8
78
78
70
ENDCHAR
STARTCHAR hyphen
ENCODING 45
SWIDTH 311 0
DWIDTH 9 0
BBX 7 3 1 7
BITMAP
FE
FE
FE
ENDCHAR
STARTCHAR period
ENCODING 46
SWIDTH 229 0
DWIDTH 7 0
BBX 5 4 1 0
BITMAP
F8
F8
F8
F8
ENDCHAR
STARTCHAR slash
ENCODING 47
SWIDTH 405 0
DWIDTH 12 0
BBX 12 26 0 0
BITMAP
03F0
03E0
03E0
03E0
07E0
07E0
07C0
07C0
0FC0
0FC0
0F80
0F80
0F80
1F80
1F00
1F00
1F00
3F00
3E00
3E00
3E00
7E00
7E00
7C00
7C00
FC00
ENDCHAR
STARTCHAR zero
ENCODING 48
SWIDTH 494 0
DWIDTH 15 0
BBX 13 26 1 0
BITMAP
1F80
3FE0
7FF0
FFF8
FFF8
F9F8
F8F8
F8F8
F8F8
F8F8
F8F8
F8F8
F8F8
F8F8
F8F8
F8F8
F8F8
F8F8
F8F8
F8F8
FDF8
FFF8
FFF8
7FF0
3FE0
1F80
ENDCHAR
STARTCHAR one
ENCODING 49
SWIDTH 331 0
DWIDTH 10 0
BBX 9 26 0 0
BITMAP
0780
0F80
3F80
FF80
FF80
FF80
EF80
0F80
0F80
0F80
0F80
0F80
0F80
0F80
0F80
0F80
0F80
0F80
0F80
0F80
0F80
0F80
0F80
0F80
0F80
0F80
ENDCHAR
STARTCHAR two
ENCODING 50
SWIDTH 494 0
DWIDTH 15 0
BBX 13 26 1 0
BITMAP
0FC0
3FE0
7FF0
7FF8
FFF8
FCF8
F8F8
F8F8
F8F8
F8F8
01F8
01F8
03F0
03F0
07E0
0FC0
0F80
1F80
3F00
7E00
7E00
FFF8
FFF8
FFF8
FFF8
FFF8
ENDCHAR
STARTCHAR three
ENCODING 51
SWIDTH 494 0
DWIDTH 15 0
BBX 13 26 1 0
BITMAP
1F80
3FE0
7FF0
FFF0
FFF8
F9F8
F8F8
F8F8
00F8
01F8
07F0
07F0
07E0
07F0
01F8
01F8
F8F8
F8F8
F8F8
F8F8
F9F8
FFF8
FFF0
7FF0
7FE0
1F80
ENDCHAR
STARTCHAR four
ENCODING 52
SWIDTH 494 0
DWIDTH 15 0
BBX 15 26 0 0
BITMAP
07F8
07F8
0FF8
0FF8
0FF8
0FF8
1FF8
1EF8
1EF8
1EF8
3EF8
3CF8
3CF8
3CF8
7CF8
78F8
78F8
F8F8
FFFE
FFFE
FFFE
FFFE
00F8
00F8
00F8
00F8
ENDCHAR
STARTCHAR five
ENCODING 53
SWIDTH 494 0
DWIDTH 15 0
BBX 13 26 1 0
BITMAP
FFF8
FFF8
FFF8
FFF8
FFF8
F800
F800
FBC0
FFF0
FFF0
FFF8
F9F8
F8F8
00F8
00F8
00F8
F8F8
F8F8
F8F8
F8F8
F9F8
FFF8
FFF0
7FF0
3FE0
1FC0
ENDCHAR
STARTCHAR six
ENCODING 54
SWIDTH 494 0
DWIDTH 15 0
BBX 13 26 1 0
BITMAP
0FC0
3FF0
7FF0
7FF8
FCF8
F8F8
F8F8
F8F8
F800
F800
FBE0
FFF0
FFF8
FFF8
FDF8
F8F8
F8F8
F8F8
F8F8
F8F8
FDF8
FFF8
FFF8
7FF0
3FE0
1FC0
ENDCHAR
STARTCHAR seven
ENCODING 55
SWIDTH 494 0
DWIDTH 15 0
BBX 13 26 1 0
BITMAP
FFF8
FFF8
FFF8
FFF8
FFF8
01F8
01F8
03F0
03F0
03E0
07E0
07C0
0FC0
0FC0
0F80
1F80
1F80
1F00
3F00
3F00
3F00
3E00
7E00
7E00
7E00
7E00
ENDCHAR
STARTCHAR eight
ENCODING 56
SWIDTH 494 0
DWIDTH 15 0
BBX 13 26 1 0
BITMAP
1FC0
7FE0
7FF0
FFF8
FFF8
F9F8
F8F8
F8F8
F9F8
FFF8
7FF0
3FE0
7FF0
FFF8
F9F8
F8F8
F8F8
F8F8
F8F8
F8F8
F9F8
FFF8
FFF0
7FF0
3FE0
1F80
ENDCHAR
STARTCHAR nine
ENCODING 57
SWIDTH 504 0
DWIDTH 15 0
BBX 13 26 1 0
BITMAP
0FC0
3FE0
7FF0
7FF8
FFF8
FCF8
F8F8
F8F8
F8F8
F8F8
F8F8
FCF8
FFF8
FFF8
7FF8
3EF8
00F8
00F8
F8F8
F8F8
F8F8
F8F8
FFF8
7FF0
3FE0
1FC0
ENDCHAR
STARTCHAR colon
ENCODING 58
SWIDTH 242 0
DWIDTH 7 0
BBX 5 15 1 3
BITMAP
F8
F8
F8
F8
00
00
00
00
00
00
00
F8
F8
F8
F8
ENDCHAR
STARTCHAR semicolon
ENCODING 59
SWIDTH 245 0
DWIDTH 7 0
BBX 5 18 1 0
BITMAP
F8
F8
F8
F8
00
00
00
00
00
00
F8
F8
F8
F8
38
78
78
70
ENDCHAR
STARTCHAR less
ENCODING 60
SWIDTH 321 0
DWIDTH 10 0
BBX 8 16 1 3
BITMAP
01
07
0F
3F
FF
FE
FC
F0
F0
F8
FE
FF
3F
0F
07
01
ENDCHAR
STARTCHAR equal
ENCODING 61
SWIDTH 311 0
DWIDTH 9 0
BBX 7 9 1 7
BITMAP
FE
FE
FE
00
00
00
FE
FE
FE
ENDCHAR
STARTCHAR greater
ENCODING 62
SWIDTH 321 0
DWIDTH 10 0
BBX 8 16 1 3
BITMAP
80
C0
F0
FC
FE
FF
3F
0F
0F
3F
FF
FE
FC
F0
C0
80
ENDCHAR
STARTCHAR question
ENCODING 63
SWIDTH 492 0
DWIDTH 15 0
BBX 13 26 1 0
BITMAP
1FC0
7FE0
7FF0
FFF8
FFF8
F9F8
F8F8
F8F8
F8F8
F8F8
01F8
01F8
07F0
7FF0
7FE0
7FC0
7C00
7C00
7C00
0000
0000
0000
7C00
7C00
7C00
7C00
ENDCHAR
STARTCHAR at
ENCODING 64
SWIDTH 864 0
DWIDTH 26 0
BBX 24 29 1 -3
BITMAP
007F00
03FFE0
07FFF0
0FFFF8
1FC0FC
3F003C
3E001E
7C33DE
78FBCF
79FFCF
F9FFCF
F1E7CF
F1E7CF
F3E7CF
F3E7CF
F3E7CF
F1E7CF
F1E7CF
F1FFCE
F9FFFE
78F9FC
7C70F8
7C0000
3F0000
1FC000
1FFF80
0FFF80
03FF80
007F80
ENDCHAR
STARTCHAR A
ENCODING 65
SWIDTH 485 0
DWIDTH 15 0
BBX 14 26 0 0
BITMAP
1FF0
1FF0
1FF0
1FF0
3FF0
3FF0
3EF0
3EF0
3EF0
3EF8
3EF8
3EF8
3EF8
3CF8
3CF8
7CF8
7CF8
7CF8
7FF8
7FFC
7FFC
7FFC
7C7C
7C7C
7C7C
F87C
ENDCHAR
STARTCHAR B
ENCODING 66
SWIDTH 479 0
DWIDTH 14 0
BBX 13 26 1 0
BITMAP
FFC0
FFE0
FFF0
FFF0
F9F0
F9F0
F9F8
F9F8
F9F0
F9F0
FFF0
FFC0
FFE0
FFF0
F9F0
F8F8
F8F8
F8F8
F8F8
F8F8
F8F8
F9F0
FFF0
FFF0
FFE0
FFC0
ENDCHAR
STARTCHAR C
ENCODING 67
SWIDTH 474 0
DWIDTH 14 0
BBX 13 26 1 0
BITMAP
1F80
3FE0
7FF0
7FF0
FFF0
F9F8
F9F8
F9F8
F9F8
F9F8
F800
F800
F800
F800
F800
F9F8
F9F8
F9F8
F9F8
F9F8
F9F8
FFF0
FFF0
7FF0
3FE0
1F80
ENDCHAR
STARTCHAR D
ENCODING 68
SWIDTH 493 0
DWIDTH 15 0
BBX 13 26 1 0
BITMAP
FFC0
FFE0
FFF0
FFF0
F9F8
F8F8
F8F8
F8F8
F8F8
F8F8
F8F8
F8F8
F8F8
F8F8
F8F8
F8F8
F8F8
F8F8
F8F8
F8F8
F8F8
F9F8
FFF0
FFF0
FFE0
FFC0
ENDCHAR
STARTCHAR E
ENCODING 69
SWIDTH 412 0
DWIDTH 12 0
BBX 11 26 1 0
BITMAP
FFC0
FFC0
FFC0
FFC0
FFC0
F800
F800
F800
F800
F800
FFC0
FFC0
FFC0
FFC0
FFC0
F800
F800
F800
F800
F800
F800
FFE0
FFE0
FFE0
FFE0
FFE0
ENDCHAR
STARTCHAR F
ENCODING 70
SWIDTH 399 0
DWIDTH 12 0
BBX 10 26 1 0
BITMAP
FFC0
FFC0
FFC0
FFC0
FFC0
F800
F800
F800
F800
FFC0
FFC0
FFC0
FFC0
FFC0
F800
F800
F800
F800
F800
F800
F800
F800
F800
F800
F800
F800
ENDCHAR
STARTCHAR G
ENCODING 71
SWIDTH 485 0
DWIDTH 15 0
BBX 13 26 1 0
BITMAP
1F80
3FE0
7FF0
FFF0
FFF0
F9F0
F8F8
F8F8
F8F8
F800
F800
FBF8
FBF8
FBF8
FBF8
F8F8
F8F8
F8F8
F8F8
F8F8
F9F8
FFF8
7FF8
7FF8
3FB8
1F38
ENDCHAR
STARTCHAR H
ENCODING 72
SWIDTH 499 0
DWIDTH 15 0
BBX 13 26 1 0
BITMAP
F8F8
F8F8
F8F8
F8F8
F8F8
F8F8
F8F8
F8F8
F8F8
FFF8
FFF8
FFF8
FFF8
FFF8
F8F8
F8F8
F8F8
F8F8
F8F8
F8F8
F8F8
F8F8
F8F8
F8F8
F8F8
F8F8
ENDCHAR
STARTCHAR I
ENCODING 73
SWIDTH 227 0
DWIDTH 7 0
BBX 5 26 1 0
BITMAP
F8
F8
F8
F8
F8
F8
F8
F8
F8
F8
F8
F8
F8
F8
F8
F8
F8
F8
F8
F8
F8
F8
F8
F8
F8
F8
ENDCHAR
STARTCHAR J
ENCODING 74
SWIDTH 466 0
DWIDTH 14 0
BBX 12 26 1 0
BITMAP
01F0
01F0
01F0
01F0
01F0
01F0
01F0
01F0
01F0
01F0
01F0
01F0
01F0
F9F0
F9F0
F9F0
F9F0
F9F0
F9F0
F9F0
F9F0
FFF0
FFF0
7FE0
7FC0
1F00
ENDCHAR
STARTCHAR K
ENCODING 75
SWIDTH 472 0
DWIDTH 14 0
BBX 13 26 1 0
BITMAP
F8F8
F9F0
F9F0
F9F0
F9F0
FBF0
FBE0
FBE0
FBE0
FFE0
FFC0
FFC0
FFC0
FFC0
FBE0
FBE0
FBE0
FBE0
FBF0
F9F0
F9F0
F9F0
F9F8
F8F8
F8F8
F8F8
ENDCHAR
STARTCHAR L
ENCODING 76
SWIDTH 397 0
DWIDTH 12 0
BBX 11 26 1 0
BITMAP
F800
F800
F800
F800
F800
F800
F800
F800
F800
F800
F800
F800
F800
F800
F800
F800
F800
F800
F800
F800
F800
F800
FFE0
FFE0
FFE0
FFE0
ENDCHAR
STARTCHAR M
ENCODING 77
SWIDTH 746 0
DWIDTH 22 0
BBX 20 26 1 0
BITMAP
FF0FF0
FF0FF0
FF0FF0
FF0FF0
FF8FF0
FF8FF0
FF9FF0
FF9FF0
FF9EF0
FF9EF0
FF9EF0
FBDEF0
FBDEF0
FBFEF0
FBFCF0
FBFCF0
FBFCF0
F9FCF0
F9FCF0
F9FCF0
F9F8F0
F9F8F0
F9F8F0
F8F8F0
F8F8F0
F8F8F0
ENDCHAR
STARTCHAR N
ENCODING 78
SWIDTH 498 0
DWIDTH 15 0
BBX 13 26 1 0
BITMAP
FCF8
FCF8
FCF8
FCF8
FCF8
FCF8
FEF8
FEF8
FEF8
FEF8
FEF8
FFF8
FFF8
FFF8
FFF8
FBF8
FBF8
FBF8
FBF8
FBF8
F9F8
F9F8
F9F8
F9F8
F9F8
F8F8
ENDCHAR
STARTCHAR O
ENCODING 79
SWIDTH 486 0
DWIDTH 15 0
BBX 13 26 1 0
BITMAP
1F80
3FE0
7FF0
FFF0
FFF0
F9F8
F9F8
F9F8
F9F8
F9F8
F9F8
F9F8
F9F8
F9F8
F9F8
F9F8
F9F8
F9F8
F9F8
F9F8
F9F8
FFF0
7FF0
7FF0
3FE0
1F80
ENDCHAR
STARTCHAR P
ENCODING 80
SWIDTH 472 0
DWIDTH 14 0
BBX 13 26 1 0
BITMAP
FFC0
FFE0
FFF0
FFF0
F9F0
F9F8
F8F8
F8F8
F8F8
F9F8
F9F8
F9F0
FFF0
FFF0
FFE0
FFC0
F800
F800
F800
F800
F800
F800
F800
F800
F800
F800
ENDCHAR
STARTCHAR Q
ENCODING 81
SWIDTH 494 0
DWIDTH 15 0
BBX 13 28 1 -2
BITMAP
1F80
3FE0
7FE0
FFF0
FFF0
F9F0
F9F0
F9F8
F9F8
F9F8
F9F8
F9F8
F9F8
F9F8
F9F8
F9F8
F9F8
F9F8
F9F8
F9F0
F9F0
FFF0
FFF0
7FE0
3FF0
1FF8
0078
0030
ENDCHAR
STARTCHAR R
ENCODING 82
SWIDTH 477 0
DWIDTH 14 0
BBX 13 26 1 0
BITMAP
FFC0
FFF0
FFF0
FFF0
FFF8
F9F8
F8F8
F8F8
F8F8
F9F8
FFF0
FFF0
FFC0
FFF0
F9F0
F9F0
F9F0
F9F0
F9F0
F9F0
F9F0
F9F0
F9F0
F9F0
F9F0
F9F0
ENDCHAR
STARTCHAR S
ENCODING 83
SWIDTH 461 0
DWIDTH 14 0
BBX 12 26 1 0
BITMAP
1F80
7FC0
7FE0
FFE0
FFF0
F9F0
F9F0
F9F0
FC00
FE00
7F00
3F80
1FC0
0FE0
07E0
03F0
F9F0
F9F0
F9F0
F9F0
F9F0
FFF0
FFF0
7FE0
7FE0
1F80
ENDCHAR
STARTCHAR T
ENCODING 84
SWIDTH 396 0
DWIDTH 12 0
BBX 12 26 0 0
BITMAP
FFF0
FFF0
FFF0
FFF0
FFF0
1F80
1F80
1F80
1F80
1F80
1F80
1F80
1F80
1F80
1F80
1F80
1F80
1F80
1F80
1F80
1F80
1F80
1F80
1F80
1F80
1F80
ENDCHAR
STARTCHAR U
ENCODING 85
SWIDTH 474 0
DWIDTH 14 0
BBX 12 26 1 0
BITMAP
F9F0
F9F0
F9F0
F9F0
F9F0
F9F0
F9F0
F9F0
F9F0
F9F0
F9F0
F9F0
F9F0
F9F0
F9F0
F9F0
F9F0
F9F0
F9F0
F9F0
F9F0
FFF0
FFF0
7FE0
3FE0
1F80
ENDCHAR
STARTCHAR V
ENCODING 86
SWIDTH 469 0
DWIDTH 14 0
BBX 14 26 0 0
BITMAP
F87C
787C
7C78
7CF8
7CF8
7CF8
7CF8
7CF8
7CF8
7CF8
3CF0
3CF0
3EF0
3EF0
3FF0
3FF0
3FF0
3FF0
1FE0
1FE0
1FE0
1FE0
1FE0
1FE0
1FE0
1FE0
ENDCHAR
STARTCHAR W
ENCODING 87
SWIDTH 712 0
DWIDTH 21 0
BBX 21 26 0 0
BITMAP
F8F8F8
7CF8F8
7CF8F8
7CF8F8
7CF9F8
7CFDF0
7CFDF0
7CFDF0
7CFDF0
7DFDF0
3DFDF0
3DFDF0
3FFDF0
3FFDF0
3FFDE0
3FFDE0
3FDFE0
3FDFE0
3FDFE0
3FDFE0
1FDFE0
1FCFE0
1FCFE0
1FCFC0
1FCFC0
1FCFC0
ENDCHAR
STARTCHAR X
ENCODING 88
SWIDTH 484 0
DWIDTH 15 0
BBX 14 26 0 0
BITMAP
7CFC
7CF8
7CF8
3EF8
3EF8
3EF8
3EF0
3EF0
3FF0
1FF0
1FF0
1FF0
1FE0
1FF0
1FF0
3FF0
3FF0
3EF0
3EF8
3EF8
7EF8
7CF8
7CF8
7C7C
7C7C
FC7C
ENDCHAR
STARTCHAR Y
ENCODING 89
SWIDTH 446 0
DWIDTH 13 0
BBX 13 26 0 0
BITMAP
F8F8
78F8
7CF8
7CF0
7DF0
7DF0
3DF0
3DE0
3FE0
3FE0
1FE0
1FE0
1FC0
1FC0
0FC0
0FC0
0F80
0F80
0F80
0F80
0F80
0F80
0F80
0F80
0F80
0F80
ENDCHAR
STARTCHAR Z
ENCODING 90
SWIDTH 410 0
DWIDTH 12 0
BBX 12 26 0 0
BITMAP
7FF0
7FF0
7FF0
7FF0
7FF0
03F0
03E0
07E0
07C0
07C0
0FC0
0F80
0F80
1F80
1F00
1F00
3E00
3E00
7E00
7C00
7C00
FFF0
FFF0
FFF0
FFF0
FFF0
ENDCHAR
STARTCHAR bracketleft
ENCODING 91
SWIDTH 318 0
DWIDTH 10 0
BBX 8 26 1 0
BITMAP
FF
FF
FF
FF
F8
F8
F8
F8
F8
F8
F8
F8
F8
F8
F8
F8
F8
F8
F8
F8
F8
F8
FF
FF
FF
FF
ENDCHAR
STARTCHAR backslash
ENCODING 92
SWIDTH 405 0
DWIDTH 12 0
BBX 12 26 0 0
BITMAP
FC00
7C00
7C00
7E00
7E00
3E00
3E00
3E00
3F00
1F00
1F00
1F00
1F80
0F80
0F80
0F80
0FC0
0FC0
07C0
07C0
07C0
07E0
03E0
03E0
03E0
03F0
ENDCHAR
STARTCHAR bracketright
ENCODING 93
SWIDTH 318 0
DWIDTH 10 0
BBX 8 26 1 0
BITMAP
FF
FF
FF
FF
3F
3F
3F
3F
3F
3F
3F
3F
3F
3F
3F
3F
3F
3F
3F
3F
3F
3F
FF
FF
FF
FF
ENDCHAR
STARTCHAR asciicircum
ENCODING 94
SWIDTH 474 0
DWIDTH 14 0
BBX 13 13 1 6
BITMAP
1F80
1F80
3FC0
3FC0
3FC0
3FE0
7FE0
7DE0
7DE0
79F0
F9F0
F9F0
F9F8
ENDCHAR
STARTCHAR underscore
ENCODING 95
SWIDTH 365 0
DWIDTH 11 0
BBX 9 3 1 -5
BITMAP
FF80
FF80
FF80
ENDCHAR
STARTCHAR grave
ENCODING 96
SWIDTH 317 0
DWIDTH 10 0
BBX 7 6 1 23
BITMAP
80
F0
FC
FE
FE
1E
ENDCHAR
STARTCHAR a
ENCODING 97
SWIDTH 483 0
DWIDTH 14 0
BBX 13 22 1 0
BITMAP
1F80
7FE0
7FF0
FFF0
F9F0
F9F8
F9F8
01F8
03F8
1FF8
7FF8
FDF8
F9F8
F9F8
F9F8
F9F8
F9F8
F9F8
FFF8
FFF8
7FF8
3DF8
ENDCHAR
STARTCHAR b
ENCODING 98
SWIDTH 501 0
DWIDTH 15 0
BBX 13 26 1 0
BITMAP
F800
F800
F800
F800
F9E0
FFF0
FFF8
FFF8
FCF8
FCF8
F8F8
F8F8
F8F8
F8F8
F8F8
F8F8
F8F8
F8F8
F8F8
F8F8
FCF8
FCF8
FFF8
FFF8
FBF0
F9E0
ENDCHAR
STARTCHAR c
ENCODING 99
SWIDTH 491 0
DWIDTH 15 0
BBX 13 22 1 0
BITMAP
1F80
3FE0
7FF0
FFF8
F9F8
F8F8
F8F8
F8F8
F8F8
F800
F800
F800
F800
F8F8
F8F8
F8F8
F8F8
FDF8
FFF8
7FF0
3FE0
1F80
ENDCHAR
STARTCHAR d
ENCODING 100
SWIDTH 498 0
DWIDTH 15 0
BBX 13 26 1 0
BITMAP
00F8
00F8
00F8
00F8
3EF8
7FF8
FFF8
FFF8
F9F8
F8F8
F8F8
F8F8
F8F8
F8F8
F8F8
F8F8
F8F8
F8F8
F8F8
F8F8
F8F8
FDF8
FFF8
FFF8
7EF8
3CF8
ENDCHAR
STARTCHAR e
ENCODING 101
SWIDTH 488 0
DWIDTH 15 0
BBX 13 22 1 0
BITMAP
1F80
3FE0
7FF0
FFF0
FDF8
F8F8
F8F8
F8F8
F8F8
FFF8
FFF8
FFF8
F800
F800
F8F8
F8F8
F8F8
F9F8
FFF0
7FF0
3FE0
1F80
ENDCHAR
STARTCHAR f
ENCODING 102
SWIDTH 280 0
DWIDTH 8 0
BBX 7 26 1 0
BITMAP
3E
7E
7E
7E
7C
FE
FE
FE
FE
7C
7C
7C
7C
7C
7C
7C
7C
7C
7C
7C
7C
7C
7C
7C
7C
7C
ENDCHAR
STARTCHAR g
ENCODING 103
SWIDTH 504 0
DWIDTH 15 0
BBX 13 25 1 -3
BITMAP
3CF8
7EF8
7FF8
FFF8
FDF8
F8F8
F8F8
F8F8
F8F8
F8F8
F8F8
F8F8
F8F8
F8F8
F8F8
FDF8
FFF8
7FF8
7EF8
3EF8
41F8
7FF8
FFF0
FFE0
3F80
ENDCHAR
STARTCHAR h
ENCODING 104
SWIDTH 505 0
DWIDTH 15 0
BBX 13 26 1 0
BITMAP
F800
F800
F800
F800
F9E0
FBF0
FFF8
FFF8
FCF8
F8F8
F8F8
F8F8
F8F8
F8F8
F8F8
F8F8
F8F8
F8F8
F8F8
F8F8
F8F8
F8F8
F8F8
F8F8
F8F8
F8F8
ENDCHAR
STARTCHAR i
ENCODING 105
SWIDTH 243 0
DWIDTH 7 0
BBX 5 27 1 0
BITMAP
F8
F8
F8
F8
00
F8
F8
F8
F8
F8
F8
F8
F8
F8
F8
F8
F8
F8
F8
F8
F8
F8
F8
F8
F8
F8
F8
ENDCHAR
STARTCHAR j
ENCODING 106
SWIDTH 263 0
DWIDTH 8 0
BBX 6 29 1 -2
BITMAP
7C
7C
7C
7C
00
7C
7C
7C
7C
7C
7C
7C
7C
7C
7C
7C
7C
7C
7C
7C
7C
7C
7C
7C
7C
FC
FC
F8
F0
ENDCHAR
STARTCHAR k
ENCODING 107
SWIDTH 491 0
DWIDTH 15 0
BBX 14 26 1 0
BITMAP
F800
F800
F800
F800
F8F8
F9F8
F9F0
F9F0
FBF0
FBE0
FBE0
FFE0
FFC0
FFC0
FFC0
FFE0
FFE0
FBE0
FBF0
FBF0
F9F0
F9F8
F9F8
F8F8
F8FC
F8FC
ENDCHAR
STARTCHAR l
ENCODING 108
SWIDTH 248 0
DWIDTH 7 0
BBX 5 26 1 0
BITMAP
F8
F8
F8
F8
F8
F8
F8
F8
F8
F8
F8
F8
F8
F8
F8
F8
F8
F8
F8
F8
F8
F8
F8
F8
F8
F8
ENDCHAR
STARTCHAR m
ENCODING 109
SWIDTH 758 0
DWIDTH 23 0
BBX 21 22 1 0
BITMAP
F9E3E0
FBF7F0
FFFFF0
FFFFF0
FDF9F8
F8F9F8
F8F9F8
F8F9F8
F8F9F8
F8F9F8
F8F9F8
F8F9F8
F8F9F8
F8F9F8
F8F9F8
F8F9F8
F8F9F8
F8F9F8
F8F9F8
F8F9F8
F8F9F8
F8F9F8
ENDCHAR
STARTCHAR n
ENCODING 110
SWIDTH 499 0
DWIDTH 15 0
BBX 13 22 1 0
BITMAP
F9E0
FBF0
FFF0
FFF8
FCF8
F8F8
F8F8
F8F8
F8F8
F8F8
F8F8
F8F8
F8F8
F8F8
F8F8
F8F8
F8F8
F8F8
F8F8
F8F8
F8F8
F8F8
ENDCHAR
STARTCHAR o
ENCODING 111
SWIDTH 497 0
DWIDTH 15 0
BBX 13 22 1 0
BITMAP
0F80
3FE0
7FF0
FFF0
FDF8
F8F8
F8F8
F8F8
F8F8
F8F8
F8F8
F8F8
F8F8
F8F8
F8F8
F8F8
F8F8
F9F8
FFF8
7FF0
3FE0
1FC0
ENDCHAR
STARTCHAR p
ENCODING 112
SWIDTH 500 0
DWIDTH 15 0
BBX 13 26 1 -4
BITMAP
FBE0
FFF0
FFF0
FFF8
FDF8
F8F8
F8F8
F8F8
F8F8
F8F8
F8F8
F8F8
F8F8
F8F8
F8F8
F8F8
F8F8
FDF8
FFF8
FFF0
FFF0
FBE0
F800
F800
F800
F800
ENDCHAR
STARTCHAR q
ENCODING 113
SWIDTH 500 0
DWIDTH 15 0
BBX 13 26 1 -4
BITMAP
3EF8
7FF8
FFF8
FFF8
F9F8
F8F8
F8F8
F8F8
F8F8
F8F8
F8F8
F8F8
F8F8
F8F8
F8F8
F8F8
F8F8
F9F8
FFF8
FFF8
7FF8
3CF8
00F8
00F8
00F8
00F8
ENDCHAR
STARTCHAR r
ENCODING 114
SWIDTH 344 0
DWIDTH 10 0
BBX 9 22 1 0
BITMAP
F980
FB80
FF80
FF80
FC00
F800
F800
F800
F800
F800
F800
F800
F800
F800
F800
F800
F800
F800
F800
F800
F800
F800
ENDCHAR
STARTCHAR s
ENCODING 115
SWIDTH 475 0
DWIDTH 14 0
BBX 13 22 1 0
BITMAP
1F80
7FE0
FFF0
FFF0
F9F0
F9F8
F9F8
FE00
FF00
7F80
3FC0
1FE0
07F0
03F0
F9F8
F9F8
F9F8
F9F8
FFF0
FFF0
7FE0
1F80
ENDCHAR
STARTCHAR t
ENCODING 116
SWIDTH 305 0
DWIDTH 9 0
BBX 9 26 0 0
BITMAP
3E00
3E00
3E00
3E00
3E00
FF80
FF80
FF80
FF80
3E00
3E00
3E00
3E00
3E00
3E00
3E00
3E00
3E00
3E00
3E00
3E00
3E00
3F80
3F80
3F80
1F80
ENDCHAR
STARTCHAR u
ENCODING 117
SWIDTH 499 0
DWIDTH 15 0
BBX 13 22 1 0
BITMAP
F8F8
F8F8
F8F8
F8F8
F8F8
F8F8
F8F8
F8F8
F8F8
F8F8
F8F8
F8F8
F8F8
F8F8
F8F8
F8F8
F8F8
F9F8
FFF8
FFF8
7EF8
3CF8
ENDCHAR
STARTCHAR v
ENCODING 118
SWIDTH 461 0
DWIDTH 14 0
BBX 14 22 0 0
BITMAP
FCFC
7CF8
7CF8
7CF8
7CF8
7CF8
7CF0
3DF0
3DF0
3DF0
3FF0
3FF0
3FE0
3FE0
1FE0
1FE0
1FE0
1FE0
1FE0
1FC0
0FC0
0FC0
ENDCHAR
STARTCHAR w
ENCODING 119
SWIDTH 696 0
DWIDTH 21 0
BBX 19 22 1 0
BITMAP
F1F3E0
F1F3E0
F1F3E0
F9F3E0
FBF3E0
FBF3E0
FBF3C0
7BF7C0
7BFFC0
7BFFC0
7BBFC0
7FBFC0
7FBFC0
7FBF80
7FBF80
3FBF80
3FBF80
3F9F80
3F9F80
3F1F80
3F1F80
3F1F00
ENDCHAR
STARTCHAR x
ENCODING 120
SWIDTH 459 0
DWIDTH 14 0
BBX 14 22 0 0
BITMAP
FC78
7C78
7E78
3EF0
3EF0
3FF0
1FE0
1FE0
0FE0
0FC0
0FC0
0FC0
1FC0
1FE0
1FE0
3FE0
3FF0
3DF0
79F0
79F8
78F8
F0FC
ENDCHAR
STARTCHAR y
ENCODING 121
SWIDTH 461 0
DWIDTH 14 0
BBX 14 25 0 -3
BITMAP
F8FC
F8F8
78F8
7CF8
7CF8
7CF8
7CF0
7CF0
3CF0
3DF0
3DF0
3DE0
3DE0
3DE0
1FE0
1FE0
1FE0
1FC0
1FC0
1FC0
0FC0
0FC0
7F80
7F80
7F00
ENDCHAR
STARTCHAR z
ENCODING 122
SWIDTH 386 0
DWIDTH 12 0
BBX 11 22 0 0
BITMAP
7FE0
7FE0
7FE0
7FE0
03E0
07E0
07C0
07C0
0FC0
0F80
1F80
1F00
1F00
3F00
3E00
3E00
7E00
7C00
7FE0
FFE0
FFE0
FFE0
ENDCHAR
STARTCHAR braceleft
ENCODING 123
SWIDTH 340 0
DWIDTH 10 0
BBX 10 29 0 -3
BITMAP
07C0
0FC0
1FC0
1FC0
3F00
3F00
3F00
3F00
3F00
3F00
3F00
3F00
3E00
FE00
F800
FE00
3E00
3F00
3F00
3F00
3F00
3F00
3F00
3F00
1F00
1FC0
1FC0
0FC0
07C0
ENDCHAR
STARTCHAR bar
ENCODING 124
SWIDTH 216 0
DWIDTH 6 0
BBX 5 30 1 -1
BITMAP
F8
F8
F8
F8
F8
F8
F8
F8
F8
F8
F8
F8
F8
F8
F8
F8
F8
F8
F8
F8
F8
F8
F8
F8
F8
F8
F8
F8
F8
F8
ENDCHAR
STARTCHAR braceright
ENCODING 125
SWIDTH 340 0
DWIDTH 10 0
BBX 9 29 1 -3
BITMAP
F000
FC00
FC00
FE00
7E00
3E00
3E00
3E00
3E00
3E00
3E00
3E00
3E00
1F80
0780
1F80
3E00
3E00
3E00
3E00
3E00
3E00
3E00
3E00
7E00
FE00
FC00
FC00
F000
ENDCHAR
STARTCHAR degree
ENCODING 176
SWIDTH 389 0
DWIDTH 12 0
BBX 10 10 1 14
BITMAP
1E00
7F80
FF80
E3C0
E1C0
E1C0
E3C0
FF80
7F80
3E00
ENDCHAR
ENDFONT
